<?xml version="1.0" ?><!DOCTYPE svg  PUBLIC '-//W3C//DTD SVG 1.1//EN'  'http://www.w3.org/Graphics/SVG/1.1/DTD/svg11.dtd'><svg enable-background="new 0 0 512 512" height="35px" id="Layer_1" version="1.1" viewBox="0 0 512 512" width="35px" xml:space="preserve" xmlns="http://www.w3.org/2000/svg" xmlns:xlink="http://www.w3.org/1999/xlink"><g><linearGradient gradientTransform="matrix(1 0 0 -1 -41.66 349.04)" gradientUnits="userSpaceOnUse" id="SVGID_1_" x1="92.3812" x2="486.0536" y1="261.5351" y2="-132.1374"><stop offset="0" style="stop-color:#517FA6"/><stop offset="1" style="stop-color:#426699"/></linearGradient><path d="M338.974,265.967c-1.419,12.011-5.296,23.186-11.597,33.514s-14.488,18.903-24.49,25.715   c-25.944,17.678-60.11,19.229-87.649,3.772c-13.915-7.799-24.843-18.683-32.474-32.721c-11.359-20.912-13.175-42.873-6.512-65.662   c-8.531,0-17.008,0-25.6,0v0.723c0,39.789-0.009,79.577,0,119.365c0,5.719,4.953,10.646,10.681,10.646   c63.098,0.009,126.186,0.009,189.284,0c5.781,0,10.707-4.908,10.707-10.681c0.009-39.736,0-79.489,0-119.215v-0.828h-25.662   C339.282,242.174,340.392,253.956,338.974,265.967z" fill="url(#SVGID_1_)"/><linearGradient gradientTransform="matrix(1 0 0 -1 -41.66 349.04)" gradientUnits="userSpaceOnUse" id="SVGID_2_" x1="196.1374" x2="589.8098" y1="365.2913" y2="-28.3812"><stop offset="0" style="stop-color:#517FA6"/><stop offset="1" style="stop-color:#426699"/></linearGradient><path d="M314.792,183.35c1.524,4.477,5.631,7.226,10.654,7.253c4.08,0,8.169-0.009,12.249-0.009v-0.053   c4.424,0,8.856,0.088,13.289-0.018c5.693-0.141,10.328-5.023,10.328-10.725c0-8.486,0-16.982,0-25.468   c0-6.089-4.82-10.927-10.892-10.936c-8.469,0-16.938-0.009-25.406,0c-6.063,0.009-10.892,4.865-10.892,10.954   c-0.009,8.416-0.035,16.832,0.027,25.248C314.158,180.856,314.396,182.161,314.792,183.35z" fill="url(#SVGID_2_)"/><linearGradient gradientTransform="matrix(1 0 0 -1 -41.66 349.04)" gradientUnits="userSpaceOnUse" id="SVGID_3_" x1="110.7703" x2="504.4427" y1="279.9242" y2="-113.7482"><stop offset="0" style="stop-color:#517FA6"/><stop offset="1" style="stop-color:#426699"/></linearGradient><path d="M254.744,310.444c30.438,0.652,55.06-23.67,55.704-53.254c0.661-30.491-23.943-55.695-54.452-55.677   c-29.821-0.018-54.064,23.979-54.479,53.659C201.085,285.663,225.486,309.818,254.744,310.444z" fill="url(#SVGID_3_)"/><linearGradient gradientTransform="matrix(1 0 0 -1 -41.66 349.04)" gradientUnits="userSpaceOnUse" id="SVGID_4_" x1="110.7729" x2="504.4455" y1="279.9268" y2="-113.7456"><stop offset="0" style="stop-color:#517FA6"/><stop offset="1" style="stop-color:#426699"/></linearGradient><path d="M348.489,35.511H163.511c-70.692,0-128,57.308-128,128v184.978c0,70.692,57.308,128,128,128h184.978   c39.173,0,74.228-17.603,97.708-45.323l0,0c18.892-22.305,30.292-51.157,30.292-82.677V163.511   C476.489,92.819,419.181,35.511,348.489,35.511z M390.43,363.566c-0.194,1.198-0.37,2.397-0.59,3.604   c-2.15,11.042-11.121,20.198-22.102,22.533c-1.384,0.3-2.785,0.502-4.186,0.731H148.447c-0.573-0.079-1.154-0.194-1.719-0.264   c-11.835-1.524-21.776-10.557-24.41-22.207c-0.309-1.357-0.502-2.741-0.749-4.098V148.153c0.079-0.502,0.185-1.005,0.255-1.507   c1.701-12.073,10.513-21.661,22.428-24.375c1.278-0.291,2.591-0.467,3.886-0.705h215.721c0.502,0.088,0.987,0.203,1.498,0.264   c12.197,1.675,22.137,11.024,24.499,23.071c0.22,1.172,0.388,2.362,0.573,3.534L390.43,363.566L390.43,363.566z" fill="url(#SVGID_4_)"/></g></svg>
